<?xml version="1.0" encoding="UTF-8" standalone="no"?>
<svg
   width="180"
   height="180"
   viewBox="0 0 180 180"
   version="1.1"
   id="icon-defs"
   xml:space="preserve"
   sodipodi:docname="icons.svg"
   inkscape:version="1.3.2 (1:1.3.2+202311252150+091e20ef0f)"
   xmlns:inkscape="http://www.inkscape.org/namespaces/inkscape"
   xmlns:sodipodi="http://sodipodi.sourceforge.net/DTD/sodipodi-0.dtd"
   xmlns="http://www.w3.org/2000/svg"
   xmlns:svg="http://www.w3.org/2000/svg"><defs
   id="defs23"><inkscape:path-effect
     effect="bspline"
     id="path-effect218"
     is_visible="true"
     lpeversion="1.3"
     weight="33.333333"
     steps="2"
     helper_size="0"
     apply_no_weight="true"
     apply_with_weight="true"
     only_selected="false"
     uniform="false" /><inkscape:path-effect
     effect="bspline"
     id="path-effect216"
     is_visible="true"
     lpeversion="1.3"
     weight="33.333333"
     steps="2"
     helper_size="0"
     apply_no_weight="true"
     apply_with_weight="true"
     only_selected="false"
     uniform="false" /><inkscape:path-effect
     effect="spiro"
     id="path-effect143"
     is_visible="true"
     lpeversion="1" /><inkscape:path-effect
     effect="spiro"
     id="path-effect108"
     is_visible="true"
     lpeversion="1" /><inkscape:path-effect
     effect="bspline"
     id="path-effect85"
     is_visible="true"
     lpeversion="1.3"
     weight="33.333333"
     steps="2"
     helper_size="0"
     apply_no_weight="true"
     apply_with_weight="true"
     only_selected="false"
     uniform="false" /><inkscape:path-effect
     effect="bspline"
     id="path-effect83"
     is_visible="true"
     lpeversion="1.3"
     weight="33.333333"
     steps="2"
     helper_size="0"
     apply_no_weight="true"
     apply_with_weight="true"
     only_selected="false"
     uniform="false" /><inkscape:path-effect
     effect="bspline"
     id="path-effect82"
     is_visible="true"
     lpeversion="1.3"
     weight="33.333333"
     steps="2"
     helper_size="0"
     apply_no_weight="true"
     apply_with_weight="true"
     only_selected="false"
     uniform="false" /><inkscape:path-effect
     effect="bspline"
     id="path-effect81"
     is_visible="true"
     lpeversion="1.3"
     weight="33.333333"
     steps="2"
     helper_size="0"
     apply_no_weight="true"
     apply_with_weight="true"
     only_selected="false"
     uniform="false" /><inkscape:path-effect
     effect="bspline"
     id="path-effect80"
     is_visible="true"
     lpeversion="1.3"
     weight="33.333333"
     steps="2"
     helper_size="0"
     apply_no_weight="true"
     apply_with_weight="true"
     only_selected="false"
     uniform="false" /><inkscape:path-effect
     effect="bspline"
     id="path-effect78"
     is_visible="true"
     lpeversion="1.3"
     weight="33.333333"
     steps="2"
     helper_size="0"
     apply_no_weight="true"
     apply_with_weight="true"
     only_selected="false"
     uniform="false" /><inkscape:path-effect
     effect="bspline"
     id="path-effect77"
     is_visible="true"
     lpeversion="1.3"
     weight="33.333333"
     steps="2"
     helper_size="0"
     apply_no_weight="true"
     apply_with_weight="true"
     only_selected="false"
     uniform="false" /><inkscape:path-effect
     effect="bspline"
     id="path-effect74"
     is_visible="true"
     lpeversion="1.3"
     weight="33.333333"
     steps="2"
     helper_size="0"
     apply_no_weight="true"
     apply_with_weight="true"
     only_selected="false"
     uniform="false" /><inkscape:path-effect
     effect="bspline"
     id="path-effect72"
     is_visible="true"
     lpeversion="1.3"
     weight="33.333333"
     steps="2"
     helper_size="0"
     apply_no_weight="true"
     apply_with_weight="true"
     only_selected="false"
     uniform="false" /><inkscape:path-effect
     effect="spiro"
     id="path-effect60"
     is_visible="true"
     lpeversion="1" /><inkscape:path-effect
     effect="spiro"
     id="path-effect53"
     is_visible="true"
     lpeversion="1" /></defs><sodipodi:namedview
   id="namedview23"
   pagecolor="#51b35c"
   bordercolor="#666666"
   borderopacity="1.0"
   inkscape:showpageshadow="2"
   inkscape:pageopacity="0.0"
   inkscape:pagecheckerboard="0"
   inkscape:deskcolor="#d1d1d1"
   showgrid="true"
   showguides="true"
   inkscape:zoom="2.862214"
   inkscape:cx="23.408452"
   inkscape:cy="62.888378"
   inkscape:window-width="1850"
   inkscape:window-height="1016"
   inkscape:window-x="70"
   inkscape:window-y="27"
   inkscape:window-maximized="1"
   inkscape:current-layer="time"><inkscape:grid
     id="grid23"
     units="px"
     originx="0"
     originy="0"
     spacingx="1"
     spacingy="1"
     empcolor="#3f3fff"
     empopacity="0.25098039"
     color="#8e8eb0"
     opacity="0.1254902"
     empspacing="4"
     dotted="false"
     gridanglex="30"
     gridanglez="30"
     visible="true" /><sodipodi:guide
     position="-9.4964029,90"
     orientation="0,1"
     id="guide23"
     inkscape:locked="false"
     inkscape:label=""
     inkscape:color="rgb(0,134,229)" /><sodipodi:guide
     position="92,-4"
     orientation="-1,0"
     id="guide24"
     inkscape:locked="false"
     inkscape:label=""
     inkscape:color="rgb(0,134,229)" /></sodipodi:namedview>
        
        
        

        

        
<g
   inkscape:groupmode="layer"
   id="layer2"
   inkscape:label="completed"
   style="display:none"><g
     inkscape:groupmode="layer"
     id="calendar"
     inkscape:label="calendar"><rect
       style="fill:#000000;stroke:none;stroke-width:3;stroke-linecap:round;stroke-linejoin:round;stroke-dasharray:none;paint-order:stroke fill markers"
       id="rect32"
       width="156"
       height="140"
       x="12"
       y="32" /><rect
       style="fill:#ffffff;stroke:none;stroke-width:4.33013;stroke-linecap:round;stroke-linejoin:round;stroke-dasharray:none;paint-order:stroke fill markers"
       id="rect33"
       width="20"
       height="20"
       x="20"
       y="60" /><rect
       style="fill:#ffffff;stroke:none;stroke-width:4.33013;stroke-linecap:round;stroke-linejoin:round;stroke-dasharray:none;paint-order:stroke fill markers"
       id="rect34"
       width="20"
       height="20"
       x="50"
       y="60" /><rect
       style="fill:#ffffff;stroke:none;stroke-width:4.33013;stroke-linecap:round;stroke-linejoin:round;stroke-dasharray:none;paint-order:stroke fill markers"
       id="rect35"
       width="20"
       height="20"
       x="80"
       y="60" /><rect
       style="fill:#ffffff;stroke:none;stroke-width:4.33013;stroke-linecap:round;stroke-linejoin:round;stroke-dasharray:none;paint-order:stroke fill markers"
       id="rect36"
       width="20"
       height="20"
       x="110"
       y="60" /><rect
       style="fill:#ffffff;stroke:none;stroke-width:4.33013;stroke-linecap:round;stroke-linejoin:round;stroke-dasharray:none;paint-order:stroke fill markers"
       id="rect37"
       width="20"
       height="20"
       x="140"
       y="60" /><rect
       style="fill:#ffffff;stroke:none;stroke-width:4.33013;stroke-linecap:round;stroke-linejoin:round;stroke-dasharray:none;paint-order:stroke fill markers"
       id="rect38"
       width="20"
       height="20"
       x="20"
       y="88" /><rect
       style="fill:#ffffff;stroke:none;stroke-width:4.33013;stroke-linecap:round;stroke-linejoin:round;stroke-dasharray:none;paint-order:stroke fill markers"
       id="rect39"
       width="20"
       height="20"
       x="50"
       y="88" /><rect
       style="fill:#ffffff;stroke:none;stroke-width:4.33013;stroke-linecap:round;stroke-linejoin:round;stroke-dasharray:none;paint-order:stroke fill markers"
       id="rect40"
       width="20"
       height="20"
       x="80"
       y="88" /><rect
       style="fill:#ffffff;stroke:none;stroke-width:4.33013;stroke-linecap:round;stroke-linejoin:round;stroke-dasharray:none;paint-order:stroke fill markers"
       id="rect41"
       width="20"
       height="20"
       x="110"
       y="88" /><rect
       style="fill:#ffffff;stroke:none;stroke-width:4.33013;stroke-linecap:round;stroke-linejoin:round;stroke-dasharray:none;paint-order:stroke fill markers"
       id="rect42"
       width="20"
       height="20"
       x="140"
       y="88" /><rect
       style="fill:#ffffff;stroke:none;stroke-width:4.33013;stroke-linecap:round;stroke-linejoin:round;stroke-dasharray:none;paint-order:stroke fill markers"
       id="rect43"
       width="20"
       height="20"
       x="20"
       y="116" /><rect
       style="fill:#ffffff;stroke:none;stroke-width:4.33013;stroke-linecap:round;stroke-linejoin:round;stroke-dasharray:none;paint-order:stroke fill markers"
       id="rect44"
       width="20"
       height="20"
       x="50"
       y="116" /><rect
       style="fill:#ffffff;stroke:none;stroke-width:4.33013;stroke-linecap:round;stroke-linejoin:round;stroke-dasharray:none;paint-order:stroke fill markers"
       id="rect45"
       width="20"
       height="20"
       x="80"
       y="116" /><rect
       style="fill:#ffffff;stroke:none;stroke-width:4.33013;stroke-linecap:round;stroke-linejoin:round;stroke-dasharray:none;paint-order:stroke fill markers"
       id="rect46"
       width="20"
       height="20"
       x="110"
       y="116" /><rect
       style="fill:#ffffff;stroke:none;stroke-width:4.33013;stroke-linecap:round;stroke-linejoin:round;stroke-dasharray:none;paint-order:stroke fill markers"
       id="rect47"
       width="20"
       height="20"
       x="140"
       y="116" /><rect
       style="fill:#ffffff;stroke:none;stroke-width:4.33013;stroke-linecap:round;stroke-linejoin:round;stroke-dasharray:none;paint-order:stroke fill markers"
       id="rect48"
       width="20"
       height="20"
       x="20"
       y="144" /><rect
       style="fill:#ffffff;stroke:none;stroke-width:4.33013;stroke-linecap:round;stroke-linejoin:round;stroke-dasharray:none;paint-order:stroke fill markers"
       id="rect49"
       width="20"
       height="20"
       x="50"
       y="144" /><rect
       style="fill:#ffffff;stroke:none;stroke-width:4.33013;stroke-linecap:round;stroke-linejoin:round;stroke-dasharray:none;paint-order:stroke fill markers"
       id="rect50"
       width="20"
       height="20"
       x="80"
       y="144" /><rect
       style="fill:#ffffff;stroke:none;stroke-width:4.33013;stroke-linecap:round;stroke-linejoin:round;stroke-dasharray:none;paint-order:stroke fill markers"
       id="rect51"
       width="20"
       height="20"
       x="110"
       y="144" /><rect
       style="fill:#ffffff;stroke:none;stroke-width:4.33013;stroke-linecap:round;stroke-linejoin:round;stroke-dasharray:none;paint-order:stroke fill markers"
       id="rect52"
       width="20"
       height="20"
       x="140"
       y="144" /><rect
       style="fill:#000000;stroke:none;stroke-width:3.08229;stroke-linecap:round;stroke-linejoin:round;stroke-dasharray:none;paint-order:stroke fill markers"
       id="rect53"
       width="156"
       height="16"
       x="12"
       y="12" /></g><g
     inkscape:groupmode="layer"
     id="book"
     inkscape:label="book"><path
       id="path30"
       style="fill:#000000;stroke:#000000;stroke-width:3;stroke-linecap:round;stroke-linejoin:round;stroke-dasharray:none;paint-order:stroke fill markers"
       d="m 56,14 -16,8 v 144 h 84 V 22 H 48 l 12,-6 h 76 v 2 142 l 4,-2 V 14 Z" /></g><g
     id="cog"
     style="display:inline">
            <path
   style="fill:currentColor;fill-opacity:1;stroke:none;stroke-width:2.91107"
   d="m 97.752501,14.130132 -9.381402,13.321575 -0.875593,3.780985 0.153413,10.126218 -15.231962,2.683646 -3.320429,-9.569021 -2.115099,-3.246528 -13.372747,-9.313164 -6.817124,3.940185 1.375919,16.23265 1.756892,3.456901 6.623829,7.658625 -9.938582,11.848983 -8.693428,-5.196724 -3.712755,-1.125768 -16.226967,1.461225 -2.695014,7.397083 11.490766,11.553325 3.570636,1.518082 10.001112,1.609049 v 15.465082 l -10.001112,1.609049 -3.570636,1.51808 -11.490766,11.55333 2.695014,7.39707 16.226967,1.46124 3.712755,-1.12577 8.693428,-5.19673 9.938582,11.849 -6.623829,7.6586 -1.756892,3.4569 -1.375919,16.23267 6.817124,3.94017 13.372747,-9.31317 2.115099,-3.24651 3.320429,-9.56902 15.231962,2.68363 -0.153413,10.12623 0.875593,3.78099 9.381402,13.32157 7.749599,-1.37024 4.25858,-15.72665 -0.46624,-3.84919 -3.60472,-9.46099 13.3898,-7.73254 6.39641,7.85192 3.09872,2.33113 15.74934,4.17332 5.06027,-6.02683 -6.84557,-14.78849 -2.83716,-2.64385 -8.84125,-4.93518 5.28767,-14.532632 9.94426,1.910392 3.8777,-0.21038 14.74863,-6.925177 v -7.868995 l -14.74863,-6.925174 -3.8777,-0.210383 -9.94426,1.910392 -5.28767,-14.532629 8.84125,-4.935179 2.83716,-2.643849 6.84557,-14.788484 -5.06027,-6.026831 -15.74934,4.173298 -3.09872,2.331133 -6.39641,7.851938 -13.3898,-7.73254 3.60472,-9.460991 0.46624,-3.849211 -4.25858,-15.726624 z M 88.371099,75.44463 A 14.55537,14.55537 0 0 1 102.92647,90 14.55537,14.55537 0 0 1 88.371099,104.55537 14.55537,14.55537 0 0 1 73.815728,90 14.55537,14.55537 0 0 1 88.371099,75.44463 Z"
   id="path1" />
        </g><g
     id="pdf"
     style="display:inline">
            <path
   style="fill:#ffffff;fill-opacity:1;fill-rule:nonzero;stroke:currentColor;stroke-width:5.73751;stroke-linecap:round;stroke-linejoin:round;stroke-dasharray:none;stroke-opacity:1"
   d="m 115.96038,9.1011226 31.41471,31.7977544 m 0,11.232914 V 159.42386 c 0,6.35716 -5.11786,11.47502 -11.47502,11.47502 H 44.099928 c -6.35716,0 -11.475018,-5.11786 -11.475018,-11.47502 V 20.576141 c 0,-6.35716 5.117858,-11.4750184 11.475018,-11.4750184 h 71.860452 l -0.14159,20.0812814 c -0.0449,6.357008 5.11832,11.398586 11.47503,11.475018 l 20.08127,0.241455"
   id="path2" />
            <path
   style="fill:none;stroke:currentColor;stroke-width:4.74634;stroke-linecap:butt;stroke-linejoin:miter;stroke-dasharray:none;stroke-opacity:1"
   d="M 56.949794,109.50753 C 70.723931,123.86069 104.41318,45.431956 83.05466,47.805125 61.696136,50.178294 111.53269,116.62705 123.39853,100.01485 135.26439,83.402664 43.175657,95.15437 56.949794,109.50753 Z"
   id="path3" />
        </g><g
     id="slides"
     style="display:inline">
            <path
   style="fill:none;stroke:currentColor;stroke-width:5;stroke-linecap:round;stroke-linejoin:miter;stroke-dasharray:none;stroke-opacity:1"
   d="m 90,21.25 30,137.5"
   id="path4" />
            <path
   style="fill:none;stroke:currentColor;stroke-width:5;stroke-linecap:round;stroke-linejoin:miter;stroke-dasharray:none;stroke-opacity:1"
   d="M 90,21.25 60,158.75"
   id="path5" />
            <rect
   style="fill:#ffffff;fill-opacity:1;stroke:currentColor;stroke-width:10.4525;stroke-dasharray:none;stroke-opacity:1;paint-order:stroke markers fill"
   width="119.79137"
   height="82.273766"
   x="30.104315"
   y="36.476234"
   ry="4.7737675"
   rx="4.7737675"
   id="rect5" />
            <rect
   style="fill:currentColor;fill-opacity:1;stroke:currentColor;stroke-width:5.90268;stroke-dasharray:none;stroke-opacity:1;paint-order:stroke markers fill"
   width="140"
   height="5.2262344"
   x="20"
   y="31.25"
   ry="1.6724058"
   id="rect6" />
            <path
   style="fill:none;stroke:currentColor;stroke-width:5;stroke-linecap:butt;stroke-linejoin:miter;stroke-dasharray:none;stroke-opacity:1"
   d="m 90,66.25 h 50"
   id="path6" />
            <path
   style="fill:none;stroke:currentColor;stroke-width:5;stroke-linecap:butt;stroke-linejoin:miter;stroke-dasharray:none;stroke-opacity:1"
   d="m 90,76.25 h 50"
   id="path7" />
            <path
   style="fill:none;stroke:currentColor;stroke-width:5;stroke-linecap:butt;stroke-linejoin:miter;stroke-dasharray:none;stroke-opacity:1"
   d="m 90,86.25 h 50"
   id="path8" />
            <path
   style="fill:none;stroke:currentColor;stroke-width:5;stroke-linecap:butt;stroke-linejoin:miter;stroke-dasharray:none;stroke-opacity:1"
   d="m 90,56.25 h 50"
   id="path9" />
            <path
   style="fill:currentColor;fill-opacity:1;stroke:currentColor;stroke-width:5;stroke-linecap:round;stroke-dasharray:none;stroke-opacity:1;paint-order:stroke markers fill"
   d="M 80.000002,78.84906 A 20.099062,20.099062 0 0 1 67.592518,97.418172 20.099062,20.099062 0 0 1 45.688757,93.061243 20.099062,20.099062 0 0 1 41.331828,71.157482 20.099062,20.099062 0 0 1 59.90094,58.749998 V 78.84906 Z"
   id="path10" />
        </g><g
     id="fullscreen"
     style="display:inline">
            <path
   style="fill:none;stroke:currentColor;stroke-width:10;stroke-dasharray:none;paint-order:stroke markers fill"
   d="M 19.402776,9.9953678 H 160.51388 c 5.2117,0 9.40741,4.1957032 9.40741,9.4074042 V 160.51388 c 0,5.2117 -4.19571,9.40741 -9.40741,9.40741 H 19.402776 c -5.211704,0 -9.4074082,-4.19571 -9.4074082,-9.40741 V 19.402772 c 0,-5.211701 4.1957042,-9.4074042 9.4074082,-9.4074042 z"
   id="path21" />
            /&gt;
            <path
   style="fill:none;stroke:currentColor;stroke-width:5;stroke-linecap:round;stroke-linejoin:round;stroke-dasharray:none;stroke-opacity:1"
   d="M 150.95833,68.801471 V 28.958332 h -39.84314"
   id="path22" />
            <path
   style="fill:none;stroke:currentColor;stroke-width:5;stroke-linecap:round;stroke-linejoin:round;stroke-dasharray:none;stroke-opacity:1"
   d="m 28.958332,111.11519 v 39.84314 h 39.843139"
   id="path23" />
        </g><g
     inkscape:groupmode="layer"
     id="arrow-left"
     inkscape:label="arrow-left"
     style="display:inline"><path
       style="color:#000000;stroke-linecap:round;stroke-linejoin:round;-inkscape-stroke:none;paint-order:stroke fill markers"
       d="m 48,50.671875 a 7.5,7.5 0 0 0 -5.302734,2.195312 L 10.988281,84.576172 a 7.5,7.5 0 0 0 -0.291015,0.121094 7.5,7.5 0 0 0 0,10.605468 l 32,31.999996 a 7.5,7.5 0 0 0 10.605468,0 7.5,7.5 0 0 0 0,-10.60546 L 34.105469,97.5 H 164 A 7.5,7.5 0 0 0 171.5,90 7.5,7.5 0 0 0 164,82.5 H 34.277344 l 19.02539,-19.025391 a 7.5,7.5 0 0 0 0,-10.607422 A 7.5,7.5 0 0 0 48,50.671875 Z"
       id="path26" /></g><g
     inkscape:groupmode="layer"
     id="arrow-up"
     inkscape:label="arrow-up"
     style="display:inline"><path
       style="color:#000000;display:inline;stroke-linecap:round;stroke-linejoin:round;-inkscape-stroke:none;paint-order:stroke fill markers"
       d="m 50.587074,48.084807 a 7.5,7.5 0 0 1 2.195312,-5.30274 l 31.708985,-31.70898 a 7.5,7.5 0 0 1 0.121094,-0.29102 7.5,7.5 0 0 1 10.605468,0 l 31.999997,32 a 7.5,7.5 0 0 1 0,10.60547 7.5,7.5 0 0 1 -10.60546,0 L 97.415199,34.190277 V 164.0848 a 7.5,7.5 0 0 1 -7.5,7.5 7.5,7.5 0 0 1 -7.5,-7.5 V 34.362147 l -19.025391,19.02539 a 7.5,7.5 0 0 1 -10.607422,0 7.5,7.5 0 0 1 -2.195312,-5.30273 z"
       id="path28" /></g><g
     inkscape:groupmode="layer"
     id="arrow-down"
     inkscape:label="arrow-down"
     style="display:inline"
     transform="matrix(1,0,0,-1,0,180.17073)"><path
       style="color:#000000;display:inline;stroke-linecap:round;stroke-linejoin:round;-inkscape-stroke:none;paint-order:stroke fill markers"
       d="m 50.587074,48.084807 a 7.5,7.5 0 0 1 2.195312,-5.30274 l 31.708985,-31.70898 a 7.5,7.5 0 0 1 0.121094,-0.29102 7.5,7.5 0 0 1 10.605468,0 l 31.999997,32 a 7.5,7.5 0 0 1 0,10.60547 7.5,7.5 0 0 1 -10.60546,0 L 97.415199,34.190277 V 164.0848 a 7.5,7.5 0 0 1 -7.5,7.5 7.5,7.5 0 0 1 -7.5,-7.5 V 34.362147 l -19.025391,19.02539 a 7.5,7.5 0 0 1 -10.607422,0 7.5,7.5 0 0 1 -2.195312,-5.30273 z"
       id="path29" /></g><g
     inkscape:groupmode="layer"
     id="arrow-right"
     inkscape:label="arrow-right"
     style="display:inline"><path
       style="color:#000000;display:inline;stroke-linecap:round;stroke-linejoin:round;-inkscape-stroke:none;paint-order:stroke fill markers"
       d="m 132.00113,50.671875 a 7.5,7.5 0 0 1 5.30274,2.195312 l 31.70898,31.708985 a 7.5,7.5 0 0 1 0.29102,0.121094 7.5,7.5 0 0 1 0,10.605468 l -32,31.999996 a 7.5,7.5 0 0 1 -10.60547,0 7.5,7.5 0 0 1 0,-10.60546 L 145.89566,97.5 H 16.001134 A 7.5,7.5 0 0 1 8.5011337,90 7.5,7.5 0 0 1 16.001134,82.5 H 145.72379 L 126.6984,63.474609 a 7.5,7.5 0 0 1 0,-10.607422 7.5,7.5 0 0 1 5.30273,-2.195312 z"
       id="path27" /></g><g
     inkscape:groupmode="layer"
     id="dashboard"
     inkscape:label="dashboard"
     style="display:inline"><circle
       style="fill:none;stroke:#000000;stroke-width:16.6452;stroke-linecap:round;stroke-linejoin:round;stroke-dasharray:none;paint-order:stroke fill markers"
       id="path55"
       cx="90"
       cy="90"
       r="77.677422" /><circle
       style="fill:#000000;stroke:none;stroke-width:10;stroke-linecap:round;stroke-linejoin:round;stroke-dasharray:none;paint-order:stroke fill markers"
       id="path56"
       cx="90"
       cy="35"
       r="8" /><path
       style="fill:#000000;stroke:#000000;stroke-width:18.4807;stroke-linecap:round;stroke-linejoin:round;stroke-dasharray:none;paint-order:stroke fill markers"
       d="M 90,90 114.92415,36.690119"
       id="path60"
       inkscape:path-effect="#path-effect60"
       inkscape:original-d="M 90,90 C 102.66667,80 102.25748,46.690119 114.92415,36.690119"
       sodipodi:nodetypes="cc"
       transform="matrix(0.8116585,0,0,0.8116585,16.107712,17.793758)" /><circle
       style="fill:#000000;stroke:none;stroke-width:10;stroke-linecap:round;stroke-linejoin:round;stroke-dasharray:none;paint-order:stroke fill markers"
       id="circle62"
       cx="-72.279221"
       cy="2.6442589e-05"
       r="8"
       transform="rotate(-134.99999)" /><circle
       style="fill:#000000;stroke:none;stroke-width:10;stroke-linecap:round;stroke-linejoin:round;stroke-dasharray:none;paint-order:stroke fill markers"
       id="circle63"
       cx="-57.101116"
       cy="-77.874649"
       r="8"
       transform="rotate(-165)" /><circle
       style="fill:#000000;stroke:none;stroke-width:10;stroke-linecap:round;stroke-linejoin:round;stroke-dasharray:none;paint-order:stroke fill markers"
       id="circle64"
       cx="-20.183695"
       cy="-137.17734"
       r="8"
       transform="rotate(120.00003)" /><circle
       style="fill:#000000;stroke:none;stroke-width:10;stroke-linecap:round;stroke-linejoin:round;stroke-dasharray:none;paint-order:stroke fill markers"
       id="circle65"
       cx="-90.000008"
       cy="145"
       r="8"
       transform="rotate(-90)" /></g><g
     inkscape:groupmode="layer"
     id="download"
     inkscape:label="download"><path
       style="color:#000000;fill:#000000;stroke-linecap:round;stroke-linejoin:round;-inkscape-stroke:none;paint-order:stroke fill markers"
       d="m 50.587074,56.501122 c -2.19e-4,1.98873 0.789435,3.896127 2.195312,5.302737 l 31.708985,31.708979 c 0.03832,0.0978 0.07869,0.194869 0.121094,0.29102 2.928802,2.92819 7.676666,2.92819 10.605468,0 L 127.21793,61.803859 c 2.92818,-2.9288 2.92818,-7.676664 0,-10.605468 -2.9288,-2.928171 -7.67666,-2.928171 -10.60546,0 L 97.415199,70.395649 v -58.93868 c 0,-4.1421355 -3.357864,-7.5000005 -7.5,-7.5000005 -4.142136,0 -7.5,3.357865 -7.5,7.5000005 v 58.76681 L 63.389808,51.198392 c -2.929026,-2.929479 -7.678396,-2.929479 -10.607422,0 -1.405874,1.40661 -2.195529,3.314003 -2.195312,5.30273 z"
       id="path71" /><path
       id="rect65"
       style="fill:#000000;stroke:none;stroke-width:16.3936;stroke-linecap:round;stroke-linejoin:round;stroke-dasharray:none;paint-order:stroke fill markers"
       d="M 4,67.456969 V 135.45697 H 176 V 67.456969 h -43.82812 l -31.6504,31.650389 c -5.794793,5.793582 -15.416128,5.793582 -21.210933,0 a 7.50075,7.50075 0 0 1 -0.365235,-0.5332 L 47.828125,67.456969 Z m 85.916016,2.767579 a 7.50075,7.50075 0 0 1 -12.800782,5.30469 l 12.679688,12.67968 a 7.50075,7.50075 0 0 1 0.162109,0.248051 L 102.71289,75.701109 A 7.50075,7.50075 0 0 1 89.916016,70.396419 Z M 148,75.456969 h 16 v 19.999999 h -16 z" /></g><g
     inkscape:groupmode="layer"
     id="eye-open"
     inkscape:label="eye-open"><path
       id="path73"
       style="fill:none;stroke:#000000;stroke-width:11.61173188;stroke-linecap:round;stroke-linejoin:round;stroke-dasharray:none;paint-order:stroke fill markers"
       transform="matrix(1,0,0,-1.6687394,0,240.18655)"
       d="M 7.6700199,90 C 35.113347,77.415588 62.556673,64.831176 89.942052,64.831302 117.32743,64.831428 144.65377,77.415589 171.98065,90 M 7.6700199,90 C 35.113346,102.58441 62.556671,115.16883 89.942051,115.1687 117.32743,115.16857 144.65377,102.58441 171.98065,90"
       inkscape:original-d="M 7.6700199,90 C 35.113347,77.415588 62.556673,64.831176 90,52.246764 117.32743,64.831428 144.65377,77.415588 171.98065,90 M 7.6700199,90 C 35.113347,102.58441 62.556673,115.16882 90,127.75324 117.32743,115.16857 144.65377,102.58441 171.98065,90"
       inkscape:path-effect="#path-effect74" /><path
       id="path74"
       style="fill:#000000;stroke:none;stroke-width:15;stroke-linecap:round;stroke-linejoin:round;stroke-dasharray:none;paint-order:stroke fill markers"
       d="M 89.941406 48 C 81.710671 47.999937 73.475959 49.924656 65.236328 53.148438 A 30 30 0 0 0 60 70 A 30 30 0 0 0 90 100 A 30 30 0 0 0 120 70 A 30 30 0 0 0 114.88281 53.246094 C 106.5733 49.959226 98.260143 48.000064 89.941406 48 z M 71.041016 74.628906 C 71.599386 74.626383 72.143233 74.931648 72.507812 75.587891 C 73.341137 77.087874 73.232619 79.978275 75 83 C 76.767381 86.021725 79.580111 87.75586 79.580078 88.755859 C 79.580046 89.755858 76.336027 89.756198 74.046875 88.732422 C 71.757723 87.708645 70.461527 85.718351 69.609375 83.189453 C 68.757223 80.660556 68.427603 77.745121 69.166016 76.082031 C 69.581373 75.146543 70.323111 74.632151 71.041016 74.628906 z " /></g><g
     inkscape:groupmode="layer"
     id="eye-close"
     inkscape:label="eye-close"
     style="display:inline"><path
       id="path78"
       style="fill:none;stroke:#000000;stroke-width:11.6117;stroke-linecap:round;stroke-linejoin:round;stroke-dasharray:none;paint-order:stroke fill markers"
       transform="matrix(1,0,0,-1.6687394,0,240.18655)"
       d="M 7.6700199,90 C 35.113347,77.415588 62.556673,64.831176 89.942052,64.831302 117.32743,64.831428 144.65377,77.415589 171.98065,90 M 7.6700199,90 C 35.113346,102.58441 62.556671,115.16883 89.942051,115.1687 117.32743,115.16857 144.65377,102.58441 171.98065,90"
       inkscape:original-d="M 7.6700199,90 C 35.113347,77.415588 62.556673,64.831176 90,52.246764 117.32743,64.831428 144.65377,77.415588 171.98065,90 M 7.6700199,90 C 35.113347,102.58441 62.556673,115.16882 90,127.75324 117.32743,115.16857 144.65377,102.58441 171.98065,90"
       inkscape:path-effect="#path-effect80" /><path
       style="fill:#000000;stroke:#000000;stroke-width:15;stroke-linecap:round;stroke-linejoin:round;stroke-dasharray:none;paint-order:stroke fill markers"
       d="m 40.285515,131.5287 c -5.726459,7.61059 -11.452913,15.22117 -17.179372,22.83176"
       id="path80"
       inkscape:path-effect="#path-effect81"
       inkscape:original-d="m 40.285515,131.5287 c -5.726457,7.61059 -11.452914,15.22117 -17.179372,22.83176"
       transform="translate(5.56569,-3.0215646)" /><path
       style="fill:#000000;stroke:#000000;stroke-width:15;stroke-linecap:round;stroke-linejoin:round;stroke-dasharray:none;paint-order:stroke fill markers"
       d="m 81.506552,131.35888 c -0.02406,10.70613 -0.04812,21.41226 -0.07218,32.11839"
       id="path81"
       inkscape:path-effect="#path-effect82"
       inkscape:original-d="m 81.506552,131.35888 c -0.02406,10.70613 -0.04812,21.41226 -0.07218,32.11839"
       transform="translate(8.565628)" /><path
       style="fill:#000000;stroke:#000000;stroke-width:15;stroke-linecap:round;stroke-linejoin:round;stroke-dasharray:none;paint-order:stroke fill markers"
       d="m 40.285515,131.5287 c -5.726459,7.61059 -11.452913,15.22117 -17.179372,22.83176"
       id="path83"
       inkscape:path-effect="#path-effect85"
       inkscape:original-d="m 40.285515,131.5287 c -5.726457,7.61059 -11.452914,15.22117 -17.179372,22.83176"
       transform="matrix(-1,0,0,1,172.37438,-3.0215646)" /></g><g
     inkscape:groupmode="layer"
     id="g86"
     inkscape:label="disk"
     style="display:inline"><path
       id="rect86"
       style="fill:#808000;stroke:none;stroke-width:15;stroke-linecap:round;stroke-linejoin:round;stroke-dasharray:none;paint-order:stroke fill markers"
       d="M 4 68 L 4 135.45703 L 176 135.45703 L 176 68 L 4 68 z M 148 76 L 164 76 L 164 96 L 148 96 L 148 76 z " /></g><g
     inkscape:groupmode="layer"
     id="g87"
     inkscape:label="upload"
     style="display:inline"><path
       id="path87"
       style="fill:#000000;stroke:none;stroke-width:15;stroke-linecap:round;stroke-linejoin:round;stroke-dasharray:none;paint-order:stroke fill markers"
       d="M 4 68 L 4 135.45703 L 176 135.45703 L 176 68 L 104.91602 68 L 104.91602 88.5 C 104.91602 96.69542 98.111436 103.5 89.916016 103.5 C 81.720595 103.5 74.916016 96.69542 74.916016 88.5 L 74.916016 68 L 4 68 z M 148 76 L 164 76 L 164 96 L 148 96 L 148 76 z " /><path
       style="color:#000000;fill:#000000;stroke-linecap:round;stroke-linejoin:round;-inkscape-stroke:none;paint-order:stroke fill markers"
       d="m 50.587074,43.455847 c -2.19e-4,-1.98873 0.789435,-3.896127 2.195312,-5.302737 L 84.491371,6.444131 c 0.03832,-0.0978 0.07869,-0.194869 0.121094,-0.29102 2.928802,-2.92819 7.676666,-2.92819 10.605468,0 L 127.21793,38.15311 c 2.92818,2.9288 2.92818,7.676664 0,10.605468 -2.9288,2.928171 -7.67666,2.928171 -10.60546,0 L 97.415199,29.56132 V 88.5 c 0,4.142135 -3.357864,7.5 -7.5,7.5 -4.142136,0 -7.5,-3.357865 -7.5,-7.5 V 29.73319 L 63.389808,48.758577 c -2.929026,2.929479 -7.678396,2.929479 -10.607422,0 -1.405874,-1.40661 -2.195529,-3.314003 -2.195312,-5.30273 z"
       id="path91" /></g><g
     inkscape:groupmode="layer"
     id="lock"
     inkscape:label="lock"><path
       id="rect108"
       style="fill:#000000;stroke:none;stroke-width:16.5036;stroke-linecap:round;stroke-linejoin:round;stroke-dasharray:none;paint-order:stroke fill markers"
       d="m 88.996094,20.693197 c -0.694564,0.01403 -1.39006,0.04443 -2.083985,0.08984 -3.700924,0.242216 -7.383184,0.931936 -10.955078,2.085937 C 64.683168,26.511322 55.177215,34.641368 49.826172,45.210775 47.175957,50.445499 45.612824,56.032736 44.816406,61.595541 44.020269,67.156398 44,72.522153 44,77.593588 v 5.722656 35.093746 40.90625 h 92 V 83.316244 h -0.0664 V 68.902182 C 136.68437,54.042104 129.95989,39.366276 118.18555,30.253744 109.83663,23.792257 99.414539,20.482819 88.996094,20.693197 Z m 0.736328,12.855469 c 7.384332,-0.0011 14.864828,2.38117 20.613278,6.830078 8.36139,6.471137 13.41426,17.589913 12.79102,28.144531 -0.007,0.126178 -0.0102,0.252536 -0.01,0.378907 V 83.316244 H 56.806641 v -5.722656 c 0,-5.010032 0.0529,-9.764741 0.685547,-14.183594 0.63236,-4.416906 1.856306,-8.65434 3.759765,-12.414062 3.756306,-7.419483 10.729996,-13.381116 18.642578,-15.9375 3.144048,-1.015775 6.481376,-1.509257 9.837891,-1.509766 z M 90,129.55062 c 5.522847,0 10,4.47715 10,10 0,5.52285 -4.477153,10 -10,10 -5.522847,0 -10,-4.47715 -10,-10 0,-5.52285 4.477153,-10 10,-10 z"
       sodipodi:nodetypes="sssssscccccccssssccccssssssssss" /></g><g
     inkscape:groupmode="layer"
     id="log-in"
     inkscape:label="log-in"><path
       id="path111"
       style="color:#000000;display:inline;stroke-linecap:round;stroke-linejoin:round;-inkscape-stroke:none;paint-order:stroke fill markers"
       d="m 59.80273,50.671875 c 1.98873,-2.19e-4 3.89613,0.789435 5.302739,2.195312 l 31.70898,31.708985 c 0.0978,0.03832 0.19487,0.07869 0.29102,0.121094 2.928181,2.928802 2.928181,7.676666 0,10.605468 l -32,31.999996 c -2.928799,2.92818 -7.67667,2.92818 -10.605469,0 -2.92817,-2.9288 -2.92817,-7.67666 0,-10.60546 L 73.697259,97.5 H 17.8016 c -4.142136,0 -7.5,-3.357864 -7.5,-7.5 0,-4.142136 3.357864,-7.5 7.5,-7.5 H 73.52539 L 54.5,63.474609 c -2.92948,-2.929026 -2.92948,-7.678396 0,-10.607422 1.40661,-1.405874 3.313999,-2.195529 5.30273,-2.195312 z M 111.99609,14 111.88477,146.7742 54.5,155.5 124,158 V 14 Z M 52,11.5 c -1.380655,1.38e-4 -2.499862,1.119345 -2.5,2.5 v 2.5 h 5 v 0 h 67 v 139 h -67 v 0 h -5 v 2.5 c 1.38e-4,1.38065 1.119345,2.49986 2.5,2.5 h 72 c 1.38065,-1.4e-4 2.49986,-1.11935 2.5,-2.5 V 14 c -1.4e-4,-1.380655 -1.11935,-2.499862 -2.5,-2.5 z" /></g><g
     inkscape:groupmode="layer"
     id="minus-sign"
     inkscape:label="minus-sign"><path
       id="path114"
       style="fill:#000000;stroke:none;stroke-width:15;stroke-linecap:round;stroke-linejoin:round;stroke-dasharray:none;paint-order:stroke fill markers"
       d="M 90 8 A 82 82 0 0 0 8 90 A 82 82 0 0 0 90 172 A 82 82 0 0 0 172 90 A 82 82 0 0 0 90 8 z M 44 76 L 136 76 L 136 104 L 44 104 L 44 76 z " /></g><g
     inkscape:groupmode="layer"
     id="new-window"
     inkscape:label="new-window"><path
       style="fill:none;stroke:#000000;stroke-width:15;stroke-linecap:round;stroke-linejoin:round;stroke-dasharray:none;paint-order:stroke fill markers"
       d="m 92.79219,41.484847 h -56 V 145.48485 h 104 V 89.484847"
       id="path116" /><path
       style="color:#000000;display:inline;stroke-linecap:round;stroke-linejoin:round;-inkscape-stroke:none;paint-order:stroke fill markers"
       d="m 113.85483,10.197303 c 1.40608,-1.406395 3.31319,-2.196761 5.3019,-2.197311 L 164,8 c 0.0963,-0.04203 0.19343,-0.08218 0.2914,-0.120163 4.14153,4.37e-4 7.49877,3.357684 7.4992,7.499201 l 10e-6,45.254827 c -4.5e-4,4.14152 -3.35769,7.49876 -7.49919,7.49919 -4.14151,-4.4e-4 -7.49877,-3.35768 -7.4992,-7.4992 l -3e-5,-27.149008 -40.93841,40.938418 c -2.92892,2.92892 -7.67766,2.92893 -10.60659,0 -2.92893,-2.92894 -2.92893,-7.67768 0,-10.60661 L 146.0641,22.999803 h -26.90597 c -4.1426,3.23e-4 -7.50091,-3.357987 -7.50059,-7.50058 5.3e-4,-1.988725 0.79088,-3.895824 2.19729,-5.30192 z"
       id="path115"
       sodipodi:nodetypes="cccccccccssscccc" /></g><g
     inkscape:groupmode="layer"
     id="ok"
     inkscape:label="ok"
     style="display:inline"><path
       style="fill:none;stroke:#000000;stroke-width:32.7775;stroke-linecap:butt;stroke-linejoin:miter;stroke-dasharray:none;paint-order:stroke fill markers"
       d="M 12.24988,99.604143 53.041573,140.39586 168,25.437424"
       id="path117" /></g><g
     inkscape:groupmode="layer"
     id="list"
     inkscape:label="list"
     style="display:inline"><rect
       style="fill:#000000;stroke:none;stroke-width:35;stroke-linecap:round;stroke-linejoin:round;stroke-dasharray:none;paint-order:stroke fill markers"
       id="rect91"
       width="28.000004"
       height="28.000004"
       x="7.9999962"
       y="7.9999962" /><rect
       style="fill:#000000;stroke:none;stroke-width:20.0855;stroke-linecap:round;stroke-linejoin:round;stroke-dasharray:none;paint-order:stroke fill markers"
       id="rect92"
       width="124"
       height="27.883221"
       x="48"
       y="8.1167793" /><rect
       style="fill:#000000;stroke:none;stroke-width:35;stroke-linecap:round;stroke-linejoin:round;stroke-dasharray:none;paint-order:stroke fill markers"
       id="rect127"
       width="28.000004"
       height="28.000004"
       x="7.9999962"
       y="51.883217" /><rect
       style="fill:#000000;stroke:none;stroke-width:20.0855;stroke-linecap:round;stroke-linejoin:round;stroke-dasharray:none;paint-order:stroke fill markers"
       id="rect128"
       width="124"
       height="27.883221"
       x="48"
       y="52" /><rect
       style="fill:#000000;stroke:none;stroke-width:35;stroke-linecap:round;stroke-linejoin:round;stroke-dasharray:none;paint-order:stroke fill markers"
       id="rect129"
       width="28.000004"
       height="28.000004"
       x="7.9999962"
       y="95.883209" /><rect
       style="fill:#000000;stroke:none;stroke-width:20.0855;stroke-linecap:round;stroke-linejoin:round;stroke-dasharray:none;paint-order:stroke fill markers"
       id="rect130"
       width="124"
       height="27.883221"
       x="48"
       y="96" /><rect
       style="fill:#000000;stroke:none;stroke-width:35;stroke-linecap:round;stroke-linejoin:round;stroke-dasharray:none;paint-order:stroke fill markers"
       id="rect131"
       width="28.000004"
       height="28.000004"
       x="7.9999962"
       y="139.88321" /><rect
       style="fill:#000000;stroke:none;stroke-width:20.0855;stroke-linecap:round;stroke-linejoin:round;stroke-dasharray:none;paint-order:stroke fill markers"
       id="rect132"
       width="124"
       height="27.883221"
       x="48"
       y="140" /></g><g
     inkscape:groupmode="layer"
     id="play"
     inkscape:label="play"><path
       id="path133"
       style="fill:#000000;stroke:#000000;stroke-width:6.23016;stroke-linecap:round;stroke-linejoin:round;stroke-dasharray:none;paint-order:stroke fill markers"
       d="M 171.24684,90.003895 43.115079,8.7033523 M 171.38492,91.040242 43.253157,172.34078 43.115079,8.7033523" /></g><g
     inkscape:groupmode="layer"
     id="plus"
     inkscape:label="plus"><path
       id="rect134"
       style="stroke-width:6.45497;stroke-linecap:round;stroke-linejoin:round;paint-order:stroke fill markers"
       transform="rotate(90)"
       d="m 70,-166 h 40 V -10 H 70 Z m -58,98 v -40 h 156 v 40 z" /></g><g
     inkscape:groupmode="layer"
     id="print"
     inkscape:label="print"><path
       style="color:#000000;fill:#000000;stroke-width:0.809935;stroke-linecap:round;stroke-linejoin:round;-inkscape-stroke:none;paint-order:stroke fill markers"
       d="M 64.625001,132 H 114 l 28,24 H 82 Z"
       id="path139"
       sodipodi:nodetypes="ccccc" /><path
       style="color:#000000;fill:#000000;stroke-linecap:round;stroke-linejoin:round;-inkscape-stroke:none;paint-order:stroke fill markers"
       d="m 54,24 h 68 V 60 H 54 Z"
       id="path141" /><path
       id="path137"
       style="fill:#000000;stroke:none;stroke-width:15;stroke-linecap:round;stroke-linejoin:round;stroke-dasharray:none;paint-order:stroke fill markers"
       d="m 14,56 v 68 l 12,20 h 37.435547 l -9.660156,-13.70508 c -1.824485,-2.58958 -0.251754,-4.36915 3.861328,-4.36914 h 49.375001 c 4.43796,1.6e-4 10.62802,2.06543 14.75781,4.92383 L 140.76367,144 H 166 V 72 L 154,56 h -24.5 v 4 c -4.1e-4,4.141964 -3.35804,7.499586 -7.5,7.5 H 54 C 49.858036,67.499586 46.500414,64.141964 46.5,60 v -4 z"
       sodipodi:nodetypes="ccccccccccccccccccc" /></g><g
     inkscape:groupmode="layer"
     id="question-sign"
     inkscape:label="question-sign"><path
       id="path142"
       style="fill:#000000;stroke:none;stroke-width:15.7317;stroke-linecap:round;stroke-linejoin:round;stroke-dasharray:none;paint-order:stroke fill markers"
       d="M 90 4 A 86 86 0 0 0 4 90 A 86 86 0 0 0 90 176 A 86 86 0 0 0 176 90 A 86 86 0 0 0 90 4 z M 90.558594 25.796875 C 94.473673 25.780912 98.392815 26.62487 102.02539 28.332031 C 109.29054 31.746354 114.63171 38.242856 116.57617 46.03125 C 118.52064 53.819644 116.85857 62.063715 112.05078 68.492188 C 109.719 71.610003 107.14799 73.755034 105.11133 75.572266 C 103.09821 77.368484 101.43956 78.974538 100.31836 80.494141 C 99.220366 81.982285 98.42101 83.673959 98.011719 85.375 C 97.604676 87.066691 97.5 89.30168 97.5 92 L 97.5 104 A 7.5 7.5 0 0 1 90 111.5 A 7.5 7.5 0 0 1 82.5 104 L 82.5 92 C 82.5 89.076743 82.52164 85.639137 83.429688 81.865234 C 84.335487 78.100686 86.00844 74.623303 88.248047 71.587891 C 90.464444 68.583936 92.943521 66.327302 95.125 64.380859 C 97.28293 62.455428 99.003984 60.891817 100.03906 59.507812 C 102.03048 56.844992 102.82693 52.890194 102.02148 49.664062 C 101.21605 46.437932 98.653924 43.322494 95.644531 41.908203 C 92.635139 40.493917 88.601276 40.510435 85.603516 41.949219 C 82.605756 43.388001 80.070124 46.525221 79.291016 49.757812 A 7.5 7.5 0 0 1 70.242188 55.291016 A 7.5 7.5 0 0 1 64.708984 46.242188 C 66.589875 38.438196 71.876212 31.899233 79.113281 28.425781 C 82.731816 26.689056 86.643515 25.812835 90.558594 25.796875 z M 90 126.17383 A 9.8256683 9.8256683 0 0 1 99.826172 136 A 9.8256683 9.8256683 0 0 1 90 145.82617 A 9.8256683 9.8256683 0 0 1 80.173828 136 A 9.8256683 9.8256683 0 0 1 90 126.17383 z " /></g><g
     inkscape:groupmode="layer"
     id="refresh"
     inkscape:label="refresh"><path
       id="path148"
       style="color:#000000;fill:#000000;stroke-width:1.06548;stroke-linecap:round;stroke-linejoin:round;-inkscape-stroke:none;paint-order:stroke fill markers"
       d="m 22.532359,82.07753 a 7.991926,7.991926 0 0 0 -5.298284,3.057023 L 4.2630611,102.04078 a 7.9911269,7.9911269 0 0 0 1.4733641,11.20423 7.9911269,7.9911269 0 0 0 11.2063068,-1.47337 l 8.107664,-10.56743 10.565352,8.10766 A 7.9911269,7.9911269 0 0 0 46.819974,107.83642 7.9911269,7.9911269 0 0 0 45.344529,96.632202 L 28.4383,83.661189 A 7.991926,7.991926 0 0 0 22.532359,82.07753 Z M 168,67.30227 a 7.9911269,7.9911269 0 0 0 -5.2962,3.057022 l -8.10767,10.567433 -10.56534,-8.107664 a 7.9911269,7.9911269 0 0 0 -11.20424,1.475445 7.9911269,7.9911269 0 0 0 1.47338,11.204226 l 16.90622,12.971014 a 7.991926,7.991926 0 0 0 11.20423,-1.473364 L 175.38347,80.090154 A 7.9911269,7.9911269 0 0 0 173.90802,68.885928 7.9911269,7.9911269 0 0 0 168,67.30227 Z M 84.933903,17.008115 C 61.168642,18.676938 39.051259,31.926398 26.64446,53.415605 a 6.7334836,6.7334836 0 0 0 2.463931,9.198121 6.7334836,6.7334836 0 0 0 9.198119,-2.466012 c 13.527325,-23.430015 41.023896,-34.819287 67.15668,-27.817029 26.13278,7.002258 44.25086,30.614648 44.25086,57.669299 a 6.7334836,6.7334836 0 0 0 6.7342,6.734188 6.7334836,6.7334836 0 0 0 6.73419,-6.734188 c 0,-33.0848 -22.27607,-62.114796 -54.23353,-70.677771 -7.98937,-2.140745 -16.093253,-2.870372 -24.015007,-2.314098 z M 23.574951,83.265794 a 6.7334836,6.7334836 0 0 0 -6.734189,6.73419 c 0,33.084796 22.27607,62.114796 54.23353,70.677766 31.957458,8.56298 65.762048,-5.44112 82.304448,-34.09339 a 6.7334836,6.7334836 0 0 0 -2.46393,-9.19811 6.7334836,6.7334836 0 0 0 -9.19813,2.46601 C 128.18936,143.28227 100.69279,154.67155 74.560006,147.66928 48.427221,140.66702 30.30914,117.05464 30.30914,89.999984 a 6.7334836,6.7334836 0 0 0 -6.734189,-6.73419 z" /></g><g
     inkscape:groupmode="layer"
     id="not-ok"
     inkscape:label="not-ok"><path
       id="path149"
       style="display:inline;stroke-width:6.45497;stroke-linecap:round;stroke-linejoin:round;paint-order:stroke fill markers"
       d="M 157.29647,131.01219 129.0122,159.29647 18.703535,48.987806 46.987806,20.703536 Z M 129.01219,20.703535 157.29647,48.987809 46.987806,159.29647 18.703531,131.0122 Z" /></g><g
     inkscape:groupmode="layer"
     id="repeat"
     inkscape:label="repeat"><path
       style="fill:none;stroke:#000000;stroke-width:15;stroke-linecap:round;stroke-linejoin:round;stroke-dasharray:none;paint-order:stroke fill markers"
       id="path150"
       sodipodi:type="arc"
       sodipodi:cx="90"
       sodipodi:cy="90"
       sodipodi:rx="66"
       sodipodi:ry="66"
       sodipodi:start="0"
       sodipodi:end="5.7595865"
       sodipodi:open="true"
       sodipodi:arc-type="arc"
       d="M 156,90 A 66,66 0 0 1 98.614729,155.43536 66,66 0 0 1 26.248895,107.08206 66,66 0 0 1 64.742893,29.023951 66,66 0 0 1 147.15768,57" /><path
       style="fill:none;stroke:#000000;stroke-width:15;stroke-linecap:round;stroke-linejoin:round;stroke-dasharray:none;paint-order:stroke fill markers"
       d="M 118.86924,53.275758 147.15768,57 150.8819,28.71158"
       id="path151"
       sodipodi:nodetypes="ccc" /></g><g
     inkscape:groupmode="layer"
     id="upload"
     inkscape:label="upload"
     style="display:inline"><path
       id="path53"
       style="fill:#000000;stroke:none;stroke-width:3.89467;stroke-linecap:round;stroke-linejoin:round;stroke-dasharray:none;paint-order:stroke fill markers"
       d="m 96.158872,25.818038 c -3.432871,-0.02171 -6.864232,0.370511 -10.200685,1.20187 -8.839312,2.202531 -16.92104,7.346331 -22.658045,14.422444 -5.737005,7.076113 -9.097499,16.04429 -9.424794,25.147997 C 45.192698,60.950406 33.882473,59.560026 24.09229,62.928954 14.302107,66.297884 6.2454064,74.353099 2.871925,84.141713 0.25166076,91.744766 0.42579139,100.27684 3.3562231,107.76583 c 2.9304317,7.48896 8.5930989,13.87508 15.6775629,17.68067 l -0.583187,0.23834 h 23.337584 c 0.982561,-2.13919 2.322367,-4.11922 4.016377,-5.81411 a 12.983527,12.983527 0 0 0 0.0025,-0.003 L 75.420268,90.255024 a 12.983527,12.983527 0 0 1 0.349913,-0.512189 c 3.858987,-3.858154 9.015666,-5.78622 14.17142,-5.78622 5.155755,0 10.312439,1.928127 14.171419,5.78622 a 12.983527,12.983527 0 0 0 0,0.0025 l 30.12283,30.122835 a 12.983527,12.983527 0 0 0 0.003,0 c 1.71687,1.71725 3.03053,3.69996 3.98342,5.81664 h 20.43685 c 7.79591,-2.22238 14.50062,-8.00149 17.85057,-15.38343 3.34994,-7.38194 3.2832,-16.232585 -0.1775,-23.563256 C 173.13141,79.959012 167.09722,74.572724 160,72.158508 152.90277,69.744291 144.83625,70.334394 138.16602,73.75593 139.99902,60.124744 134.68868,45.7322 124.44086,36.558803 116.75499,29.678755 106.45749,25.883163 96.158872,25.818038 Z m 0.763212,78.116502 a 12.983527,12.983527 0 0 1 -1.3109,2.00566 l 1.217084,-1.77745 c 0.03377,-0.0766 0.06452,-0.15344 0.09382,-0.22821 z" /><path
       style="color:#000000;fill:#000000;stroke-width:1.29822;stroke-linecap:round;stroke-linejoin:round;-inkscape-stroke:none;paint-order:stroke fill markers"
       d="m 52.920427,134.03935 c -2.08e-4,-1.87208 0.743129,-3.6676 2.066541,-4.99169 L 84.836024,99.198598 c 0.03608,-0.09206 0.07409,-0.18344 0.113997,-0.27395 2.75701,-2.756415 7.226375,-2.756415 9.983385,0 l 30.123014,30.123012 c 2.75642,2.75701 2.75642,7.22639 0,9.98338 -2.75701,2.75643 -7.22638,2.75643 -9.98339,0 L 97.001793,120.95982 v 48.0381 c 0,3.89919 -3.160905,7.06009 -7.06008,7.06009 -3.899173,0 -7.060079,-3.1609 -7.060079,-7.06009 v -47.8763 l -17.909436,17.90942 c -2.75722,2.75766 -7.228009,2.75766 -9.98523,0 -1.323411,-1.32409 -2.066746,-3.1196 -2.066541,-4.99169 z"
       id="path154" /></g><g
     inkscape:groupmode="layer"
     id="save"
     inkscape:label="save"
     style="display:inline"><path
       id="path158"
       style="color:#000000;fill:#000000;stroke-linecap:round;stroke-linejoin:round;-inkscape-stroke:none;paint-order:stroke fill markers"
       d="m 50.587074,62.10547 c -2.19e-4,1.98873 0.789435,3.896128 2.195312,5.30274 l 31.708985,31.70898 c 0.03832,0.09784 0.07869,0.194872 0.121094,0.29102 2.928802,2.92818 7.676666,2.92818 10.605468,0 l 31.999997,-32 c 2.92818,-2.928803 2.92818,-7.676667 0,-10.60547 -2.9288,-2.928171 -7.67666,-2.928171 -10.60546,0 L 97.415199,76 V 14.765008 c 0,-4.142135 -3.357864,-7.500001 -7.5,-7.500001 -4.142136,0 -7.5,3.357866 -7.5,7.500001 V 75.82813 L 63.389808,56.80274 c -2.929026,-2.929479 -7.678396,-2.929479 -10.607422,0 -1.405874,1.40661 -2.195529,3.314003 -2.195312,5.30273 z M 4,68 v 67.45703 H 176 V 68 h -37.66797 c -0.83319,2.375928 -2.16844,4.603592 -4.04297,6.478516 l -32,32.000004 v 0.002 c -6.750145,6.74871 -17.995942,6.74871 -24.746091,0 -0.128885,-0.17562 -0.251998,-0.3554 -0.369141,-0.53906 l -31.46289,-31.462894 -0.002,-0.002 C 43.866559,72.633174 42.496248,70.41035 41.632812,68 Z m 144,8 h 16 v 20 h -16 z" /></g><g
     inkscape:groupmode="layer"
     id="pencil"
     inkscape:label="pencil"
     style="display:inline"><path
       id="path126"
       style="color:#000000;fill:#000000;stroke-width:1.20326;stroke-linecap:round;stroke-linejoin:round;-inkscape-stroke:none;paint-order:stroke fill markers"
       d="m 151.35458,25.552349 c -6.55723,-6.557241 -12.87711,-10.946195 -19.43433,-4.388966 -0.0154,0.02009 -0.0303,0.04081 -0.0449,0.06151 l -0.007,-0.0079 -1.75153,1.751515 1.80472,1.804685 20.21393,20.213934 1.80467,1.804696 1.75152,-1.751529 -0.009,-0.0088 c 0.022,-0.01346 0.0418,-0.02907 0.0621,-0.0447 6.55739,-6.557062 2.16846,-12.876935 -4.38879,-19.434169 z m -29.17322,5.349912 23.8233,23.823315 L 61.151851,139.5784 37.328537,115.75507 Z M 28.015638,125.06801 c -0.30654,-0.21477 -9.20294,29.91872 -9.20294,29.91872 -0.48317,1.88059 1.226931,3.59067 3.107532,3.1075 l 29.918718,-9.20293 z"
       sodipodi:nodetypes="ccccccccccccccccccccccc" /></g><g
     inkscape:groupmode="layer"
     id="file"
     inkscape:label="file"><path
       id="rect158"
       style="fill:#000000;stroke:none;stroke-width:26.2502;stroke-linecap:round;stroke-linejoin:round;stroke-dasharray:none;paint-order:stroke fill markers"
       d="M 8,-32 H 172 V -152 H 52 v 44 H 8 Z"
       transform="rotate(90)"
       sodipodi:nodetypes="ccccccc" /><path
       style="fill:#000000;stroke:none;stroke-width:20;stroke-linecap:round;stroke-linejoin:round;stroke-dasharray:none;paint-order:stroke fill markers"
       d="m 120,8 v 32 h 32 z"
       id="path159" /></g><g
     inkscape:groupmode="layer"
     id="scale"
     inkscape:label="scale"><path
       style="fill:#000000;stroke:#000000;stroke-width:20;stroke-linecap:round;stroke-linejoin:round;stroke-dasharray:none;paint-order:stroke fill markers"
       d="M 90,68 115.22332,39.192127"
       id="path165" /><path
       style="fill:#000000;stroke:none;stroke-width:20;stroke-linecap:round;stroke-linejoin:round;stroke-dasharray:none;paint-order:stroke fill markers"
       d="M 28.640778,86.194666 H 151.35922 L 129.40678,168.76032 H 50.593219 Z"
       id="path162" /><path
       id="circle160"
       style="fill:#000000;stroke:none;stroke-width:24.0696;stroke-linecap:round;stroke-linejoin:round;stroke-dasharray:none;paint-order:stroke fill markers"
       d="M 90 4 A 64 64 0 0 0 26 68 A 64 64 0 0 0 90 132 A 64 64 0 0 0 154 68 A 64 64 0 0 0 90 4 z M 90 14.820312 A 53.179115 53.179115 0 0 1 143.17969 68 A 53.179115 53.179115 0 0 1 90 121.17969 A 53.179115 53.179115 0 0 1 36.820312 68 A 53.179115 53.179115 0 0 1 90 14.820312 z " /><circle
       style="fill:#000000;stroke:none;stroke-width:26.668;stroke-linecap:round;stroke-linejoin:round;stroke-dasharray:none;paint-order:stroke fill markers"
       id="path163"
       cx="90"
       cy="68"
       r="12.61166" /></g><g
     inkscape:groupmode="layer"
     id="search"
     inkscape:label="search"><g
       id="path168"
       transform="matrix(1.173748,0,0,1.173748,-29.75787,-16.59006)"><path
         id="path169"
         style="color:#000000;fill:#000000;stroke-linecap:round;stroke-linejoin:round;-inkscape-stroke:none;paint-order:stroke fill markers"
         d="M 85.951936,100.05292 C 79.973282,96.601132 74.680192,94.57615 71.22841,100.55481 l -25.999998,45.03332 c -3.451781,5.97866 -1.403339,13.62353 4.575317,17.07532 5.978654,3.45179 13.623536,1.40334 17.075317,-4.57532 L 92.879045,113.0548 c 3.451785,-5.97866 -0.948446,-9.55012 -6.927109,-13.00188 z M 130.05372,23.666366 C 107.21298,10.479255 77.671629,18.39483 64.48451,41.235591 51.297392,64.07635 59.212976,93.617691 82.053724,106.80482 104.8945,119.99194 134.43583,112.07635 147.62295,89.235588 160.81007,66.39483 152.8945,36.853495 130.05372,23.666366 Z m -5.71386,9.896711 A 36.57143,36.57143 0 0 1 137.72625,83.521725 36.57143,36.57143 0 0 1 87.767593,96.908102 36.57143,36.57143 0 0 1 74.382912,46.950435 36.57143,36.57143 0 0 1 124.33986,33.563077 Z" /><path
         style="color:#000000;fill:#000000;stroke-linecap:round;stroke-linejoin:round;-inkscape-stroke:none;paint-order:stroke fill markers"
         d="m 90,112 v 52"
         id="path170" /></g></g><g
     inkscape:groupmode="layer"
     id="stats"
     inkscape:label="stats"><rect
       style="fill:#000000;stroke:none;stroke-width:35.7739;stroke-linecap:round;stroke-linejoin:round;stroke-dasharray:none;paint-order:stroke fill markers"
       id="rect171"
       width="172"
       height="16"
       x="4"
       y="156" /><rect
       style="fill:#000000;stroke:none;stroke-width:28.5376;stroke-linecap:round;stroke-linejoin:round;stroke-dasharray:none;paint-order:stroke fill markers"
       id="rect172"
       width="46.909092"
       height="68"
       x="4"
       y="84" /><rect
       style="fill:#000000;stroke:none;stroke-width:41.5282;stroke-linecap:round;stroke-linejoin:round;stroke-dasharray:none;paint-order:stroke fill markers"
       id="rect174"
       width="46.909092"
       height="144"
       x="66.545456"
       y="8" /><rect
       style="fill:#000000;stroke:none;stroke-width:35.2922;stroke-linecap:round;stroke-linejoin:round;stroke-dasharray:none;paint-order:stroke fill markers"
       id="rect175"
       width="46.909092"
       height="104"
       x="129.09091"
       y="48" /></g><g
     inkscape:groupmode="layer"
     id="stop"
     inkscape:label="stop"><rect
       style="fill:#000000;stroke:none;stroke-width:25;stroke-linecap:round;stroke-linejoin:round;stroke-dasharray:none;paint-order:stroke fill markers"
       id="rect179"
       width="180"
       height="180"
       x="0"
       y="0" /></g><g
     inkscape:groupmode="layer"
     id="houses"
     inkscape:label="houses"><path
       id="path180"
       style="fill:#000000;stroke:none;stroke-width:29.3426;stroke-linecap:round;stroke-linejoin:round;stroke-dasharray:none;paint-order:stroke fill markers"
       d="M 46.095242,44.276103 0.6984164,93.501672 H 11.015877 v 57.777778 h 24.761904 v -20.63492 h 20.634921 v 20.63492 H 81.174607 V 93.501672 h 10.31746 z" /><path
       id="path181"
       style="fill:#000000;stroke:none;stroke-width:29.3426;stroke-linecap:round;stroke-linejoin:round;stroke-dasharray:none;paint-order:stroke fill markers"
       d="M 130.69841,15.387214 85.301591,64.612786 h 10.31746 v 57.777774 h 24.761909 v -20.63492 h 20.63492 v 20.63492 h 24.7619 V 64.612786 h 10.31746 z" /></g><g
     inkscape:groupmode="layer"
     id="thumbs-up"
     inkscape:label="thumbs-up"><rect
       style="fill:#000000;stroke:none;stroke-width:24.1134;stroke-linecap:round;stroke-linejoin:round;stroke-dasharray:none;paint-order:stroke fill markers"
       id="rect203"
       width="39.871826"
       height="63.666557"
       x="0.83059692"
       y="68.333435" /><path
       style="fill:none;stroke:#000000;stroke-width:15;stroke-linecap:round;stroke-linejoin:round;stroke-dasharray:none;paint-order:stroke fill markers"
       d="M 60,69.253832 92,26 c 4.743848,-5.617033 16.89452,1.228623 16,6 L 92,69.253832 160,72 136,140 60,128 Z"
       id="path212"
       sodipodi:nodetypes="cccccccc" /></g><g
     inkscape:groupmode="layer"
     id="link"
     inkscape:label="link"><path
       id="rect217"
       style="color:#000000;fill:#000000;stroke-width:1.11025;stroke-linecap:round;stroke-linejoin:round;-inkscape-stroke:none;paint-order:stroke fill markers"
       d="m 73.947394,31.906761 c -13.513546,5.597496 -21.191013,19.5355 -19.57767,33.425286 l 16.015063,-6.633656 c 0.901516,-5.181786 4.366412,-9.741865 9.708323,-11.954557 l 47.59643,-19.71509 c 8.33755,-3.453526 17.50093,0.342059 20.95447,8.679621 l 9.21109,22.237579 c 3.45354,8.337562 -0.34206,17.500928 -8.6796,20.954454 l -47.59644,19.715095 c -7.935043,3.286787 -16.608267,-0.001 -20.40545,-7.512848 l -14.865121,6.157338 c 7.157666,15.492487 25.515112,22.779047 41.416271,16.192557 L 155.32122,93.737469 C 171.62152,86.985654 179.444,68.10057 172.69216,51.800231 L 163.48107,29.56265 C 156.72923,13.26231 137.84416,5.4398538 121.54383,12.191674 Z M 24.680509,86.262407 C 8.3801682,93.014222 0.55570798,111.90013 7.3075309,128.20047 l 9.2111071,22.23758 c 6.751823,16.30034 25.638905,24.12198 41.939249,17.37014 l 47.596423,-19.71508 c 13.1142,-5.43208 20.73179,-18.71815 19.6962,-32.19286 l -16.4498,6.81374 c -1.24297,4.58734 -4.54155,8.53287 -9.392108,10.54205 l -47.59643,19.71508 c -8.337562,3.45354 -17.50293,-0.3412 -20.956468,-8.67879 l -9.211101,-22.23757 c -3.45353,-8.33757 0.344063,-17.50176 8.681624,-20.95529 l 47.59643,-19.715083 c 8.337561,-3.453532 17.500927,0.342057 20.954465,8.679623 l 1.100348,2.656485 14.83707,-6.145721 -1.10035,-2.656485 C 107.46236,67.617945 88.577274,59.795495 72.276939,66.547314 Z" /></g><g
     inkscape:groupmode="layer"
     id="trash"
     inkscape:label="trash"><path
       id="path225"
       style="color:#000000;fill:#000000;stroke-linecap:round;stroke-linejoin:round;-inkscape-stroke:none;paint-order:stroke fill markers"
       d="M 48.439453 56.439453 A 7.5 7.5 0 0 0 40.939453 63.939453 L 40.941406 168.05859 A 7.50075 7.50075 0 0 0 48.441406 175.55859 L 135.56055 175.55859 A 7.50075 7.50075 0 0 0 143.06055 168.03125 L 142.67188 63.912109 A 7.50075 7.50075 0 0 0 135.17188 56.439453 L 48.439453 56.439453 z M 68 72.5 A 7.5 7.5 0 0 1 75.5 80 L 75.5 150.16016 A 7.5 7.5 0 0 1 68 157.66016 A 7.5 7.5 0 0 1 60.5 150.16016 L 60.5 80 A 7.5 7.5 0 0 1 68 72.5 z M 91.5 72.5 A 7.5 7.5 0 0 1 99 80 L 99 150.16016 A 7.5 7.5 0 0 1 91.5 157.66016 A 7.5 7.5 0 0 1 84 150.16016 L 84 80 A 7.5 7.5 0 0 1 91.5 72.5 z M 116.5 72.5 A 7.5 7.5 0 0 1 124 80 L 124 150.16016 A 7.5 7.5 0 0 1 116.5 157.66016 A 7.5 7.5 0 0 1 109 150.16016 L 109 80 A 7.5 7.5 0 0 1 116.5 72.5 z " /><path
       style="fill:#000000;stroke:#000000;stroke-width:13.7218;stroke-linecap:round;stroke-linejoin:round;stroke-dasharray:none;paint-order:stroke fill markers"
       d="M 38.633824,38.758118 H 145.74864"
       id="path219" /><path
       style="fill:none;stroke:#000000;stroke-width:13.5162;stroke-linecap:round;stroke-linejoin:round;stroke-dasharray:none;paint-order:stroke fill markers"
       d="M 69.727369,32 V 10.016236 H 114.65509 V 32"
       id="path220" /></g><g
     inkscape:groupmode="layer"
     id="user"
     inkscape:label="user"><path
       id="path230"
       style="color:#000000;fill:#000000;stroke-width:1.05094;stroke-linecap:round;stroke-linejoin:round;-inkscape-stroke:none;paint-order:stroke fill markers"
       d="m 90,74.365648 c -2.211071,0 -4.385964,0.168402 -6.531417,0.453628 2.639702,1.0928 5.553338,1.695459 8.633293,1.695459 2.575047,0 5.023506,-0.440937 7.3032,-1.2172 C 96.340496,74.705979 93.206755,74.365648 90,74.365648 Z M 52.35096,90.24672 c -4.065274,3.784518 -7.782506,8.103191 -11.055376,12.86373 -11.738833,17.07465 -18.602838,39.85328 -18.602838,64.83591 a 9.5070544,9.5070544 0 0 0 9.505654,9.50565 H 90 147.8016 a 9.5070544,9.5070544 0 0 0 9.50565,-9.50565 c 0,-24.98263 -6.864,-47.76126 -18.60283,-64.83591 -2.67668,-3.893348 -5.65448,-7.486308 -8.86934,-10.743381 -9.71488,9.667411 -23.07357,15.675811 -37.733204,15.675811 -15.703204,0 -29.913175,-6.89502 -39.750916,-17.79616 z" /><path
       style="color:#000000;fill:#000000;stroke-width:1.16185;stroke-linecap:round;stroke-linejoin:round;-inkscape-stroke:none;paint-order:stroke fill markers"
       d="M 129.93565,50.24128 A 37.833775,46.24128 0 0 1 92.101876,96.48256 37.833775,46.24128 0 0 1 54.268102,50.24128 37.833775,46.24128 0 0 1 92.101876,4 37.833775,46.24128 0 0 1 129.93565,50.24128 Z"
       id="path229" /></g><g
     inkscape:groupmode="layer"
     id="warning-sign"
     inkscape:label="warning-sign"><path
       id="path232"
       style="color:#000000;fill:#000000;stroke-linecap:round;stroke-linejoin:round;-inkscape-stroke:none;paint-order:stroke fill markers"
       d="m 90,5.488281 a 15.0015,15.0015 0 0 0 -5.130859,0.904297 15.0015,15.0015 0 0 0 -7.859375,6.59375 L 5.9804688,136.01367 a 15.0015,15.0015 0 0 0 12.9902342,22.5 H 161.0293 a 15.0015,15.0015 0 0 0 12.99023,-22.5 L 102.99023,12.986328 A 15.0015,15.0015 0 0 0 90,5.488281 Z M 90,35 a 15,15 0 0 1 15,15 V 90 A 15,15 0 0 1 90,105 15,15 0 0 1 75,90 V 50 A 15,15 0 0 1 90,35 Z m 0.689453,79 a 15,15 0 0 1 14.999997,15 15,15 0 0 1 -14.999997,15 15,15 0 0 1 -15,-15 15,15 0 0 1 15,-15 z" /><g
       id="path233" /></g></g><g
   inkscape:groupmode="layer"
   id="time"
   inkscape:label="time"
   style="display:inline"><circle
     style="fill:none;stroke:#000000;stroke-width:15;stroke-linecap:round;stroke-linejoin:round;stroke-dasharray:none;paint-order:stroke fill markers"
     id="path214"
     cx="90"
     cy="90"
     r="77.786331" /><path
     style="fill:none;stroke:#000000;stroke-width:15;stroke-linecap:round;stroke-linejoin:round;stroke-dasharray:none;paint-order:stroke fill markers"
     d="M 128,62.18873 91.755647,90 92,144"
     id="path215"
     sodipodi:nodetypes="ccc" /></g></svg>
